<svg width="50" height="40" viewBox="0 0 50 40" fill="none" xmlns="http://www.w3.org/2000/svg">
<g clip-path="url(#clip0_1251_233)">
<path fill-rule="evenodd" clip-rule="evenodd" d="M17.7523 34.0909H25.5699L49.9999 0H42.0193L33.6317 11.6883L31.2701 8.44156H23.6154L29.9673 17.1266L17.7523 34.0909ZM0 39.2857H7.65473L22.1499 20.1299L23.9414 22.4026L27.8501 17.0454L21.6613 8.44153L0 39.2857ZM39.9024 34.0909H32.2477L29.9676 30.763L33.795 25.487L39.9024 34.0909ZM42.0194 34.091H49.0226L38.2734 19.3181L34.8533 24.026L42.0194 34.091Z" fill="url(#paint0_linear_1251_233)"/>
<mask id="mask0_1251_233" style="mask-type:luminance" maskUnits="userSpaceOnUse" x="0" y="0" width="50" height="40">
<path fill-rule="evenodd" clip-rule="evenodd" d="M17.7523 34.0909H25.5699L49.9999 0H42.0193L33.6317 11.6883L31.2701 8.44156H23.6154L29.9673 17.1266L17.7523 34.0909ZM0 39.2857H7.65473L22.1499 20.1299L23.9414 22.4026L27.8501 17.0454L21.6613 8.44153L0 39.2857ZM39.9024 34.0909H32.2477L29.9676 30.763L33.795 25.487L39.9024 34.0909ZM42.0194 34.091H49.0226L38.2734 19.3181L34.8533 24.026L42.0194 34.091Z" fill="white"/>
</mask>
<g mask="url(#mask0_1251_233)">
<path d="M25.5698 34.09V34.6614H25.8632L26.0342 34.4229L25.5698 34.09ZM17.7522 34.09L17.2885 33.7562L16.6365 34.6614H17.7522V34.09ZM49.9998 -0.000837088L50.4642 0.332014L51.1123 -0.572266H49.9998V-0.000837088ZM42.0192 -0.000837088V-0.572266H41.726L41.555 -0.333994L42.0192 -0.000837088ZM33.6317 11.6875L33.1695 12.0236L33.6348 12.6632L34.096 12.0206L33.6317 11.6875ZM31.2701 8.44072L31.7322 8.10459L31.5611 7.86929H31.2701V8.44072ZM23.6154 8.44072V7.86929H22.4895L23.1541 8.77805L23.6154 8.44072ZM29.9672 17.1257L30.431 17.4597L30.6732 17.1232L30.4284 16.7884L29.9672 17.1257ZM7.65469 39.2849V39.8563H7.93887L8.11036 39.6296L7.65469 39.2849ZM-4.07545e-05 39.2849L-0.467672 38.9564L-1.09961 39.8563H-4.07545e-05V39.2849ZM22.1498 20.129L22.5985 19.7753L22.1405 19.1942L21.6941 19.7842L22.1498 20.129ZM23.9414 22.4017L23.4925 22.7554L23.959 23.3472L24.403 22.7386L23.9414 22.4017ZM27.8501 17.0446L28.3117 17.3814L28.5558 17.047L28.314 16.7109L27.8501 17.0446ZM21.6612 8.44069L22.1251 8.10702L21.6557 7.45436L21.1935 8.11229L21.6612 8.44069ZM32.2477 34.09L31.7764 34.413L31.9465 34.6614H32.2477V34.09ZM39.9024 34.09V34.6614H41.0088L40.3684 33.7593L39.9024 34.09ZM29.9675 30.7622L29.5051 30.4266L29.2685 30.7527L29.4962 31.0852L29.9675 30.7622ZM33.795 25.4862L34.261 25.1554L33.8 24.506L33.3324 25.1506L33.795 25.4862ZM49.0225 34.0902V34.6616H50.1451L49.4847 33.7539L49.0225 34.0902ZM42.0194 34.0902L41.5538 34.4216L41.7247 34.6616H42.0194V34.0902ZM38.2734 19.3173L38.7354 18.9812L38.273 18.3456L37.8111 18.9814L38.2734 19.3173ZM34.8532 24.0252L34.391 23.6893L34.1494 24.0217L34.3877 24.3566L34.8532 24.0252ZM25.5698 33.5186H17.7522V34.6614H25.5698V33.5186ZM49.5353 -0.333689L25.1052 33.7572L26.0342 34.4229L50.4642 0.332014L49.5353 -0.333689ZM42.0192 0.570591H49.9998V-0.572266H42.0192V0.570591ZM34.096 12.0206L42.4835 0.33232L41.555 -0.333994L33.1674 11.3543L34.096 12.0206ZM30.808 8.77685L33.1695 12.0236L34.0938 11.3513L31.7322 8.10459L30.808 8.77685ZM23.6154 9.01215H31.2701V7.86929H23.6154V9.01215ZM30.4284 16.7884L24.0767 8.10339L23.1541 8.77805L29.506 17.4632L30.4284 16.7884ZM18.216 34.424L30.431 17.4597L29.5034 16.7919L17.2885 33.7562L18.216 34.424ZM7.65469 38.7134H-4.07545e-05V39.8563H7.65469V38.7134ZM21.6941 19.7842L7.199 38.94L8.11036 39.6296L22.6055 20.4739L21.6941 19.7842ZM24.3901 22.048L22.5985 19.7753L21.701 20.4827L23.4925 22.7554L24.3901 22.048ZM27.3885 16.7077L23.4797 22.0649L24.403 22.7386L28.3117 17.3814L27.3885 16.7077ZM21.1972 8.77438L27.3862 17.3783L28.314 16.7109L22.1251 8.10702L21.1972 8.77438ZM0.467591 39.6133L22.1288 8.76911L21.1935 8.11229L-0.467672 38.9564L0.467591 39.6133ZM32.2477 34.6614H39.9024V33.5186H32.2477V34.6614ZM29.4962 31.0852L31.7764 34.413L32.7191 33.7672L30.439 30.4392L29.4962 31.0852ZM33.3324 25.1506L29.5051 30.4266L30.4301 31.0977L34.2575 25.8217L33.3324 25.1506ZM40.3684 33.7593L34.261 25.1554L33.329 25.8169L39.4365 34.4209L40.3684 33.7593ZM49.0225 33.5187H42.0194V34.6616H49.0225V33.5187ZM37.8114 19.6536L48.5605 34.4263L49.4847 33.7539L38.7354 18.9812L37.8114 19.6536ZM35.3155 24.361L38.7357 19.6533L37.8111 18.9814L34.391 23.6893L35.3155 24.361ZM42.4848 33.7587L35.3187 23.6937L34.3877 24.3566L41.5538 34.4216L42.4848 33.7587Z" fill="#640694"/>
</g>
</g>
<defs>
<linearGradient id="paint0_linear_1251_233" x1="45.8467" y1="-2.23752e-06" x2="30.428" y2="32.4891" gradientUnits="userSpaceOnUse">
<stop offset="0.115" stop-color="#FFCA30"/>
<stop offset="0.425" stop-color="#FF6580"/>
<stop offset="0.74" stop-color="#FF01A2"/>
<stop offset="1" stop-color="#B94DDC"/>
</linearGradient>
<clipPath id="clip0_1251_233">
<rect width="50" height="39.2857" fill="white"/>
</clipPath>
</defs>
</svg>
